<?xml version="1.0" encoding="UTF-8"?>
<svg xmlns="http://www.w3.org/2000/svg" xmlns:xlink="http://www.w3.org/1999/xlink" width="132px" height="36px" viewBox="0 0 132 36" version="1.1">
<defs>
<filter id="alpha" filterUnits="objectBoundingBox" x="0%" y="0%" width="100%" height="100%">
  <feColorMatrix type="matrix" in="SourceGraphic" values="0 0 0 0 1 0 0 0 0 1 0 0 0 0 1 0 0 0 1 0"/>
</filter>
<mask id="mask0">
  <g filter="url(#alpha)">
<rect x="0" y="0" width="132" height="36" style="fill:rgb(0%,0%,0%);fill-opacity:0.376471;stroke:none;"/>
  </g>
</mask>
<clipPath id="clip1">
  <rect x="0" y="0" width="132" height="36"/>
</clipPath>
<g id="surface5" clip-path="url(#clip1)">
<path style=" stroke:none;fill-rule:evenodd;fill:rgb(0%,0%,0%);fill-opacity:1;" d="M 18.554688 0.328125 C 18.691406 0.34375 18.773438 0.414062 18.804688 0.546875 C 18.496094 1.476562 18.164062 2.390625 17.808594 3.292969 C 19.101562 4.507812 20.472656 5.640625 21.917969 6.695312 C 22.082031 7.207031 22.082031 7.71875 21.917969 8.230469 C 20.765625 9.320312 19.5625 10.308594 18.304688 11.195312 C 19.050781 12.585938 20.003906 13.867188 21.167969 15.035156 C 22.773438 17.515625 22.191406 19.488281 19.425781 20.964844 C 19.261719 21.402344 19.09375 21.839844 18.929688 22.28125 C 18.539062 25.460938 18.246094 28.609375 18.054688 31.71875 C 19.007812 31.394531 19.589844 30.808594 19.800781 29.964844 C 18.851562 29.929688 18.433594 29.492188 18.554688 28.644531 C 21.597656 28.144531 22.636719 29.167969 21.667969 31.71875 C 18.9375 34.914062 15.285156 36.230469 10.710938 35.671875 C 6.984375 36.078125 3.746094 35.199219 0.996094 33.035156 C 0.214844 31.898438 0.300781 30.800781 1.246094 29.742188 C 1.644531 25.773438 2.558594 21.894531 3.984375 18.109375 C 5.261719 15.519531 7.460938 13.875 10.585938 13.171875 C 11.054688 12.53125 11.179688 11.835938 10.957031 11.085938 C 9.320312 7.347656 10.609375 4.675781 14.820312 3.074219 C 15.796875 1.84375 17.039062 0.929688 18.554688 0.328125 Z M 18.554688 0.328125 "/>
</g>
<mask id="mask1">
  <g filter="url(#alpha)">
<rect x="0" y="0" width="132" height="36" style="fill:rgb(0%,0%,0%);fill-opacity:0.356863;stroke:none;"/>
  </g>
</mask>
<clipPath id="clip2">
  <rect x="0" y="0" width="132" height="36"/>
</clipPath>
<g id="surface8" clip-path="url(#clip2)">
<path style=" stroke:none;fill-rule:evenodd;fill:rgb(0%,0%,0%);fill-opacity:1;" d="M 116.433594 1.867188 C 117.761719 1.867188 119.089844 1.867188 120.417969 1.867188 C 120.417969 4.9375 120.417969 8.011719 120.417969 11.085938 C 120.917969 11.085938 121.414062 11.085938 121.914062 11.085938 C 121.914062 9.328125 121.914062 7.574219 121.914062 5.816406 C 121.546875 5.875 121.214844 5.800781 120.917969 5.597656 C 122.234375 5.378906 123.5625 5.304688 124.902344 5.378906 C 124.902344 7.28125 124.902344 9.183594 124.902344 11.085938 C 125.195312 11.039062 125.445312 11.109375 125.648438 11.304688 C 122.660156 11.597656 119.671875 11.597656 116.683594 11.304688 C 116.886719 11.109375 117.136719 11.039062 117.429688 11.085938 C 117.429688 8.230469 117.429688 5.378906 117.429688 2.523438 C 116.8125 2.613281 116.480469 2.394531 116.433594 1.867188 Z M 116.433594 1.867188 "/>
</g>
<mask id="mask2">
  <g filter="url(#alpha)">
<rect x="0" y="0" width="132" height="36" style="fill:rgb(0%,0%,0%);fill-opacity:0.32549;stroke:none;"/>
  </g>
</mask>
<clipPath id="clip3">
  <rect x="0" y="0" width="132" height="36"/>
</clipPath>
<g id="surface11" clip-path="url(#clip3)">
<path style=" stroke:none;fill-rule:evenodd;fill:rgb(0%,0%,0%);fill-opacity:1;" d="M 122.660156 2.085938 C 124.929688 2.007812 125.511719 2.847656 124.402344 4.609375 C 122.246094 5.050781 121.457031 4.355469 122.039062 2.523438 C 122.285156 2.398438 122.492188 2.253906 122.660156 2.085938 Z M 122.660156 2.085938 "/>
</g>
<mask id="mask3">
  <g filter="url(#alpha)">
<rect x="0" y="0" width="132" height="36" style="fill:rgb(0%,0%,0%);fill-opacity:0.333333;stroke:none;"/>
  </g>
</mask>
<clipPath id="clip4">
  <rect x="0" y="0" width="132" height="36"/>
</clipPath>
<g id="surface14" clip-path="url(#clip4)">
<path style=" stroke:none;fill-rule:evenodd;fill:rgb(0%,0%,0%);fill-opacity:1;" d="M 22.539062 2.523438 C 23.960938 2.453125 25.371094 2.527344 26.773438 2.742188 C 27.351562 4.5625 27.890625 6.390625 28.390625 8.230469 C 28.929688 6.410156 29.425781 4.582031 29.886719 2.742188 C 31.324219 2.457031 32.777344 2.457031 34.246094 2.742188 C 34.164062 2.964844 33.996094 3.109375 33.746094 3.183594 C 33.5 5.8125 33.414062 8.445312 33.5 11.085938 C 33.789062 11.039062 34.039062 11.109375 34.246094 11.304688 C 32.667969 11.597656 31.089844 11.597656 29.511719 11.304688 C 29.71875 11.109375 29.96875 11.039062 30.261719 11.085938 C 30.300781 9.109375 30.261719 7.132812 30.136719 5.160156 C 29.515625 7.269531 28.976562 9.390625 28.515625 11.523438 C 27.699219 11.585938 26.914062 11.511719 26.152344 11.304688 C 25.527344 9.171875 24.863281 7.050781 24.160156 4.9375 C 24.035156 6.988281 23.992188 9.035156 24.035156 11.085938 C 24.328125 11.039062 24.574219 11.109375 24.78125 11.304688 C 24.035156 11.597656 23.285156 11.597656 22.539062 11.304688 C 22.746094 11.109375 22.996094 11.039062 23.285156 11.085938 C 23.285156 8.453125 23.285156 5.816406 23.285156 3.183594 C 23.039062 3.183594 22.789062 3.183594 22.539062 3.183594 C 22.539062 2.964844 22.539062 2.742188 22.539062 2.523438 Z M 22.539062 2.523438 "/>
</g>
<mask id="mask4">
  <g filter="url(#alpha)">
<rect x="0" y="0" width="132" height="36" style="fill:rgb(0%,0%,0%);fill-opacity:0.337255;stroke:none;"/>
  </g>
</mask>
<clipPath id="clip5">
  <rect x="0" y="0" width="132" height="36"/>
</clipPath>
<g id="surface17" clip-path="url(#clip5)">
<path style=" stroke:none;fill-rule:evenodd;fill:rgb(0%,0%,0%);fill-opacity:1;" d="M 60.894531 2.523438 C 62.390625 2.523438 63.882812 2.523438 65.378906 2.523438 C 65.722656 4.40625 66.265625 6.238281 66.996094 8.011719 C 67.492188 6.1875 67.949219 4.359375 68.367188 2.523438 C 69.777344 2.523438 71.1875 2.523438 72.601562 2.523438 C 72.601562 2.742188 72.601562 2.964844 72.601562 3.183594 C 72.351562 3.183594 72.101562 3.183594 71.851562 3.183594 C 71.851562 5.816406 71.851562 8.453125 71.851562 11.085938 C 72.144531 11.039062 72.394531 11.109375 72.601562 11.304688 C 71.023438 11.597656 69.445312 11.597656 67.867188 11.304688 C 68.074219 11.109375 68.324219 11.039062 68.613281 11.085938 C 68.65625 9.253906 68.613281 7.425781 68.492188 5.597656 C 68.027344 7.519531 67.488281 9.421875 66.871094 11.304688 C 66.140625 11.519531 65.394531 11.59375 64.628906 11.523438 C 64.085938 9.460938 63.460938 7.414062 62.761719 5.378906 C 62.636719 7.277344 62.597656 9.179688 62.636719 11.085938 C 62.929688 11.039062 63.179688 11.109375 63.386719 11.304688 C 62.554688 11.597656 61.722656 11.597656 60.894531 11.304688 C 61.191406 11.101562 61.523438 11.027344 61.890625 11.085938 C 61.890625 8.453125 61.890625 5.816406 61.890625 3.183594 C 61.273438 3.273438 60.941406 3.054688 60.894531 2.523438 Z M 60.894531 2.523438 "/>
</g>
<mask id="mask5">
  <g filter="url(#alpha)">
<rect x="0" y="0" width="132" height="36" style="fill:rgb(0%,0%,0%);fill-opacity:0.337255;stroke:none;"/>
  </g>
</mask>
<clipPath id="clip6">
  <rect x="0" y="0" width="132" height="36"/>
</clipPath>
<g id="surface20" clip-path="url(#clip6)">
<path style=" stroke:none;fill-rule:evenodd;fill:rgb(0%,0%,0%);fill-opacity:1;" d="M 82.5625 3.183594 C 82.976562 3.183594 83.390625 3.183594 83.808594 3.183594 C 83.808594 3.914062 83.808594 4.644531 83.808594 5.378906 C 85.828125 5.242188 87.777344 5.390625 89.660156 5.816406 C 90.589844 5.046875 91.585938 4.972656 92.648438 5.597656 C 92.890625 6.011719 93.058594 6.453125 93.148438 6.914062 C 94.304688 5.378906 95.925781 4.828125 98.003906 5.269531 C 99.289062 5.523438 100.078125 6.21875 100.371094 7.355469 C 101.039062 10.136719 99.792969 11.597656 96.632812 11.742188 C 93.777344 11.675781 92.40625 10.359375 92.523438 7.792969 C 90.980469 8.375 90.191406 7.9375 90.160156 6.476562 C 89.898438 6.722656 89.734375 7.015625 89.660156 7.355469 C 89.535156 8.59375 89.496094 9.839844 89.535156 11.085938 C 89.902344 11.027344 90.234375 11.101562 90.53125 11.304688 C 88.953125 11.597656 87.378906 11.597656 85.800781 11.304688 C 86.003906 11.109375 86.253906 11.039062 86.546875 11.085938 C 86.546875 9.328125 86.546875 7.574219 86.546875 5.816406 C 85.632812 5.816406 84.722656 5.816406 83.808594 5.816406 C 83.765625 7.355469 83.808594 8.890625 83.933594 10.425781 C 84.007812 10.605469 84.132812 10.75 84.304688 10.867188 C 84.816406 10.628906 85.144531 10.261719 85.300781 9.769531 C 85.550781 9.476562 85.800781 9.476562 86.050781 9.769531 C 85.292969 11.742188 83.800781 12.289062 81.566406 11.414062 C 81.265625 11.214844 81.058594 10.960938 80.945312 10.644531 C 80.820312 9.039062 80.777344 7.429688 80.820312 5.816406 C 79.824219 5.671875 79.824219 5.523438 80.820312 5.378906 C 80.820312 4.792969 80.820312 4.207031 80.820312 3.621094 C 81.457031 3.574219 82.039062 3.425781 82.5625 3.183594 Z M 96.261719 5.816406 C 96.664062 5.785156 96.957031 5.933594 97.132812 6.257812 C 97.296875 7.71875 97.296875 9.183594 97.132812 10.644531 C 96.800781 11.230469 96.46875 11.230469 96.136719 10.644531 C 95.945312 9.027344 95.988281 7.417969 96.261719 5.816406 Z M 96.261719 5.816406 "/>
</g>
<mask id="mask6">
  <g filter="url(#alpha)">
<rect x="0" y="0" width="132" height="36" style="fill:rgb(0%,0%,0%);fill-opacity:0.317647;stroke:none;"/>
  </g>
</mask>
<clipPath id="clip7">
  <rect x="0" y="0" width="132" height="36"/>
</clipPath>
<g id="surface23" clip-path="url(#clip7)">
<path style=" stroke:none;fill-rule:evenodd;fill:rgb(0%,0%,0%);fill-opacity:1;" d="M 36.984375 5.160156 C 40 4.722656 41.496094 5.820312 41.46875 8.453125 C 40.140625 8.453125 38.8125 8.453125 37.484375 8.453125 C 37.296875 9.613281 37.753906 10.492188 38.851562 11.085938 C 39.917969 10.757812 40.789062 10.246094 41.46875 9.546875 C 41.304688 10.609375 40.640625 11.304688 39.476562 11.632812 C 35.375 12.054688 33.757812 10.484375 34.617188 6.914062 C 35.15625 6.035156 35.945312 5.449219 36.984375 5.160156 Z M 37.730469 5.816406 C 37.980469 5.796875 38.1875 5.871094 38.355469 6.035156 C 38.476562 6.617188 38.519531 7.203125 38.480469 7.792969 C 38.148438 7.792969 37.816406 7.792969 37.484375 7.792969 C 37.484375 7.125 37.566406 6.464844 37.730469 5.816406 Z M 37.730469 5.816406 "/>
</g>
<mask id="mask7">
  <g filter="url(#alpha)">
<rect x="0" y="0" width="132" height="36" style="fill:rgb(0%,0%,0%);fill-opacity:0.333333;stroke:none;"/>
  </g>
</mask>
<clipPath id="clip8">
  <rect x="0" y="0" width="132" height="36"/>
</clipPath>
<g id="surface26" clip-path="url(#clip8)">
<path style=" stroke:none;fill-rule:evenodd;fill:rgb(0%,0%,0%);fill-opacity:1;" d="M 44.457031 5.160156 C 48.566406 4.867188 50.101562 6.476562 49.0625 9.988281 C 48.867188 10.664062 48.410156 11.140625 47.695312 11.414062 C 42.964844 12.441406 41.097656 10.867188 42.089844 6.695312 C 42.6875 5.941406 43.476562 5.425781 44.457031 5.160156 Z M 45.203125 5.816406 C 45.453125 5.816406 45.703125 5.816406 45.949219 5.816406 C 46.214844 7.417969 46.257812 9.027344 46.074219 10.644531 C 45.839844 11.105469 45.507812 11.179688 45.078125 10.867188 C 44.878906 9.164062 44.921875 7.484375 45.203125 5.816406 Z M 45.203125 5.816406 "/>
</g>
<mask id="mask8">
  <g filter="url(#alpha)">
<rect x="0" y="0" width="132" height="36" style="fill:rgb(0%,0%,0%);fill-opacity:0.321569;stroke:none;"/>
  </g>
</mask>
<clipPath id="clip9">
  <rect x="0" y="0" width="132" height="36"/>
</clipPath>
<g id="surface29" clip-path="url(#clip9)">
<path style=" stroke:none;fill-rule:evenodd;fill:rgb(0%,0%,0%);fill-opacity:1;" d="M 75.589844 5.160156 C 78.285156 4.796875 79.78125 5.785156 80.070312 8.121094 C 79.988281 8.195312 79.90625 8.269531 79.824219 8.339844 C 78.496094 8.414062 77.164062 8.488281 75.835938 8.5625 C 76 9.261719 76.207031 9.957031 76.460938 10.644531 C 77.730469 11.199219 78.683594 10.871094 79.324219 9.660156 C 79.574219 9.511719 79.824219 9.511719 80.070312 9.660156 C 79.847656 10.660156 79.183594 11.320312 78.078125 11.632812 C 73.707031 12.097656 72.085938 10.449219 73.222656 6.695312 C 73.820312 5.941406 74.605469 5.425781 75.589844 5.160156 Z M 76.335938 5.816406 C 76.585938 5.808594 76.75 5.921875 76.832031 6.144531 C 77.039062 6.679688 77.121094 7.230469 77.082031 7.792969 C 76.75 7.792969 76.417969 7.792969 76.085938 7.792969 C 76.027344 7.109375 76.109375 6.453125 76.335938 5.816406 Z M 76.335938 5.816406 "/>
</g>
<mask id="mask9">
  <g filter="url(#alpha)">
<rect x="0" y="0" width="132" height="36" style="fill:rgb(0%,0%,0%);fill-opacity:0.345098;stroke:none;"/>
  </g>
</mask>
<clipPath id="clip10">
  <rect x="0" y="0" width="132" height="36"/>
</clipPath>
<g id="surface32" clip-path="url(#clip10)">
<path style=" stroke:none;fill-rule:evenodd;fill:rgb(0%,0%,0%);fill-opacity:1;" d="M 105.226562 5.160156 C 106.53125 4.949219 107.570312 5.3125 108.339844 6.257812 C 108.71875 7.480469 108.800781 8.726562 108.589844 9.988281 C 107.726562 11.609375 106.316406 12.121094 104.355469 11.523438 C 104.230469 12.324219 104.1875 13.128906 104.230469 13.9375 C 104.972656 13.851562 105.636719 14 106.222656 14.378906 C 104.3125 14.671875 102.402344 14.671875 100.496094 14.378906 C 100.578125 14.160156 100.742188 14.011719 100.992188 13.9375 C 101.242188 11.234375 101.324219 8.527344 101.242188 5.816406 C 100.949219 5.863281 100.699219 5.792969 100.496094 5.597656 C 101.828125 5.316406 103.15625 5.316406 104.480469 5.597656 C 104.789062 5.5 105.035156 5.355469 105.226562 5.160156 Z M 104.976562 6.035156 C 105.132812 6.0625 105.253906 6.132812 105.351562 6.257812 C 105.847656 7.71875 105.847656 9.183594 105.351562 10.644531 C 104.925781 10.960938 104.59375 10.886719 104.355469 10.425781 C 104.1875 9.328125 104.1875 8.230469 104.355469 7.132812 C 104.445312 6.707031 104.652344 6.339844 104.976562 6.035156 Z M 104.976562 6.035156 "/>
</g>
<mask id="mask10">
  <g filter="url(#alpha)">
<rect x="0" y="0" width="132" height="36" style="fill:rgb(0%,0%,0%);fill-opacity:0.341176;stroke:none;"/>
  </g>
</mask>
<clipPath id="clip11">
  <rect x="0" y="0" width="132" height="36"/>
</clipPath>
<g id="surface35" clip-path="url(#clip11)">
<path style=" stroke:none;fill-rule:evenodd;fill:rgb(0%,0%,0%);fill-opacity:1;" d="M 111.703125 5.160156 C 115.984375 5.011719 117.4375 6.769531 116.058594 10.425781 C 114.328125 11.855469 112.378906 12.113281 110.207031 11.195312 C 109.917969 10.9375 109.625 10.683594 109.335938 10.425781 C 108.964844 9.347656 108.882812 8.25 109.085938 7.132812 C 109.554688 6.023438 110.425781 5.363281 111.703125 5.160156 Z M 112.449219 5.816406 C 113.015625 5.875 113.304688 6.167969 113.320312 6.695312 C 113.488281 7.9375 113.488281 9.183594 113.320312 10.425781 C 112.753906 11.316406 112.339844 11.242188 112.074219 10.207031 C 111.84375 8.707031 111.96875 7.246094 112.449219 5.816406 Z M 112.449219 5.816406 "/>
</g>
<mask id="mask11">
  <g filter="url(#alpha)">
<rect x="0" y="0" width="132" height="36" style="fill:rgb(0%,0%,0%);fill-opacity:0.305882;stroke:none;"/>
  </g>
</mask>
<clipPath id="clip12">
  <rect x="0" y="0" width="132" height="36"/>
</clipPath>
<g id="surface38" clip-path="url(#clip12)">
<path style=" stroke:none;fill-rule:evenodd;fill:rgb(0%,0%,0%);fill-opacity:1;" d="M 127.890625 5.160156 C 128.816406 5.09375 129.6875 5.238281 130.503906 5.597656 C 130.683594 5.273438 130.972656 5.128906 131.378906 5.160156 C 131.378906 5.890625 131.378906 6.621094 131.378906 7.355469 C 130.617188 7.015625 129.953125 6.542969 129.386719 5.925781 C 128.871094 5.777344 128.371094 5.8125 127.890625 6.035156 C 127.558594 6.257812 127.558594 6.476562 127.890625 6.695312 C 129.273438 6.898438 130.476562 7.410156 131.5 8.230469 C 131.921875 11.4375 130.386719 12.460938 126.894531 11.304688 C 126.640625 11.601562 126.308594 11.75 125.898438 11.742188 C 125.792969 10.820312 125.917969 9.941406 126.273438 9.109375 C 126.636719 9.933594 127.257812 10.558594 128.140625 10.976562 C 128.925781 11.203125 129.589844 11.054688 130.132812 10.535156 C 128.800781 9.996094 127.511719 9.375 126.273438 8.671875 C 125.582031 7.011719 126.121094 5.839844 127.890625 5.160156 Z M 127.890625 5.160156 "/>
</g>
<mask id="mask12">
  <g filter="url(#alpha)">
<rect x="0" y="0" width="132" height="36" style="fill:rgb(0%,0%,0%);fill-opacity:0.337255;stroke:none;"/>
  </g>
</mask>
<clipPath id="clip13">
  <rect x="0" y="0" width="132" height="36"/>
</clipPath>
<g id="surface41" clip-path="url(#clip13)">
<path style=" stroke:none;fill-rule:evenodd;fill:rgb(0%,0%,0%);fill-opacity:1;" d="M 48.941406 5.378906 C 51.933594 5.304688 54.921875 5.378906 57.90625 5.597656 C 57.703125 5.753906 57.539062 5.9375 57.40625 6.144531 C 57.679688 7.066406 57.96875 7.980469 58.277344 8.890625 C 58.65625 7.898438 59.027344 6.910156 59.398438 5.925781 C 59.042969 5.878906 58.710938 5.769531 58.402344 5.597656 C 59.152344 5.304688 59.898438 5.304688 60.644531 5.597656 C 60.390625 5.785156 60.183594 6.003906 60.023438 6.257812 C 59.484375 7.929688 58.988281 9.613281 58.527344 11.304688 C 57.683594 11.515625 56.8125 11.585938 55.914062 11.523438 C 55.703125 10.488281 55.410156 9.460938 55.042969 8.453125 C 54.691406 9.410156 54.320312 10.363281 53.921875 11.304688 C 53.105469 11.523438 52.277344 11.59375 51.429688 11.523438 C 50.933594 9.332031 50.105469 7.285156 48.941406 5.378906 Z M 52.925781 5.816406 C 53.421875 5.816406 53.921875 5.816406 54.417969 5.816406 C 54.660156 6.957031 54.449219 8.054688 53.796875 9.109375 C 53.386719 8.035156 53.097656 6.9375 52.925781 5.816406 Z M 52.925781 5.816406 "/>
</g>
</defs>
<g id="surface1">
<use xlink:href="#surface5" mask="url(#mask0)"/>
<use xlink:href="#surface8" mask="url(#mask1)"/>
<use xlink:href="#surface11" mask="url(#mask2)"/>
<use xlink:href="#surface14" mask="url(#mask3)"/>
<use xlink:href="#surface17" mask="url(#mask4)"/>
<use xlink:href="#surface20" mask="url(#mask5)"/>
<use xlink:href="#surface23" mask="url(#mask6)"/>
<use xlink:href="#surface26" mask="url(#mask7)"/>
<use xlink:href="#surface29" mask="url(#mask8)"/>
<use xlink:href="#surface32" mask="url(#mask9)"/>
<use xlink:href="#surface35" mask="url(#mask10)"/>
<use xlink:href="#surface38" mask="url(#mask11)"/>
<use xlink:href="#surface41" mask="url(#mask12)"/>
</g>
</svg>
